<svg id="Layer_1" data-name="Layer 1" xmlns="http://www.w3.org/2000/svg" viewBox="0 0 551.49 180.36"><defs><style>.cls-1{fill:#1d1d1b;}</style></defs><title>doska</title><path class="cls-1" d="M269,227.81c-16.72,25.78-33.85,51.86-56.37,73C201.48,311.26,189,320.43,175.18,327c-3.46,1.64-8.21,4-12.15,2.61-5-1.7-4.56-7.47-2.9-11.42,3-7.09,10.61-11.71,17.79-13.59,17.32-4.54,30.82,8.51,45.31,15.59,14.29,7,29.85,11.48,45.83,11.56,32.74.18,62.8-16.34,86.34-38C367,283,378.24,271,387.09,257.85c8.38-12.41,12.27-26.47,9.29-41.33-6-30.06-34.56-47.88-63.43-50.88-17.31-1.8-34.87,1.26-51.36,6.45C268.4,176.24,255.43,182,244.76,191c-10,8.37-19.42,21.61-18.16,35.29,1.39,15.26,17.34,20,30.27,21.45,17.56,2,35.77-1,53-4.33a496.73,496.73,0,0,0,53.18-13.56c32.06-9.88,63.95-21.5,93-38.43q11-6.42,21.4-13.9c2.58-1.86.09-6.2-2.53-4.31-27.11,19.53-57.77,33.12-89.23,44-33.21,11.48-67.61,21.56-102.67,25.21a118.76,118.76,0,0,1-26.18.32c-7.9-.94-18.58-2.89-23.15-10.26-8.75-14.09,6.83-32.34,17.51-40.26,11.69-8.67,25.68-13.89,39.65-17.57,16.8-4.43,34.69-6.25,51.78-2.34,15.5,3.54,30.36,11.67,39.79,24.74,9.11,12.61,12.77,29.31,7.65,44.23-5.21,15.17-17.64,28.06-28.55,39.42C350.37,292.31,338,302.89,324,311c-14.61,8.49-31.06,14.3-48,15.47-17.15,1.18-34-2.87-49.42-10.28-13-6.23-25-17.33-40-17.66-11.5-.26-24.92,5.48-30.35,16.14-5.12,10-.21,22.21,12.44,19.88,6.6-1.21,13-5.06,18.69-8.4a149,149,0,0,0,17.07-11.71c22.89-18,40.57-41.66,56.72-65.64,4.12-6.12,8.14-12.3,12.15-18.48,1.76-2.71-2.57-5.22-4.31-2.53Z" transform="translate(-154.2 -165.12)"/><path class="cls-1" d="M357,327.84c17.56,25.21,54.39,6.51,70.53-10.61,7.92-8.41,16-23.34,9.6-34.82-6.05-10.8-21.6-11.12-32.26-9.61-14.42,2-27.69,8.93-38.94,18-10.24,8.26-22.54,20.37-22,34.66.67,16.71,18.65,16,31,13.69a249.5,249.5,0,0,0,45.88-13.59c33.28-13.17,63.74-32.42,91.19-55.28,1.91-1.6-.14-5-2.43-4.18A97.55,97.55,0,0,0,476.67,285c-4.85,4.24-21.16,17.85-8.49,22.25,6.29,2.19,13.14,2.83,19.62,4.28a62.58,62.58,0,0,1,10.73,3.24c4.65,2,8.94,4.82,3.63,9.52-12.47,11.06-30.8,8.9-45.27,3.82-3-1.07-4.35,3.76-1.32,4.82,13.35,4.69,28.22,6.58,41.47.47,4.75-2.19,11.06-6,13-11.21,2.25-6.17-3.72-9.4-8.5-11.56-6.28-2.83-13-4.1-19.77-5.4-3.27-.64-7.57-.92-10.63-2.34-2.41-1.12-3-1.57-1-4,1.18-1.45,2.44-2.84,3.73-4.2a91.09,91.09,0,0,1,37-23.7l-2.43-4.18c-38.87,32.38-86.19,59.53-136.68,67.91-6,1-17.65,2.76-21.51-3.59-3.77-6.19-.15-14.76,3.32-20.16,6.77-10.51,17.76-19.17,28.6-25.14s23.3-9.6,35.65-8.42c5.11.49,11.06,2.13,14.23,6.5,4.11,5.67,1.72,14.52-1.18,20.21-6.08,11.93-18.46,20.45-30.25,26.1-12.54,6-30.28,8.23-39.38-4.84-1.83-2.62-6.16-.12-4.32,2.53Z" transform="translate(-154.2 -165.12)"/><path class="cls-1" d="M517.37,215.93a153.74,153.74,0,0,1-9.44,13.25c-2,2.49,1.53,6,3.54,3.53a166.53,166.53,0,0,0,10.21-14.26c1.74-2.72-2.59-5.23-4.31-2.52Z" transform="translate(-154.2 -165.12)"/><path class="cls-1" d="M555.26,219.08c-6.4,21.93-17,42.2-26.13,63a262.8,262.8,0,0,0-11.27,29.41c-1.58,5.16-3.41,10.68-4,16.07-.32,3.14.18,5.69,2.91,7.51s5.19-2.55,2.52-4.32c-2.31-1.53,1.51-11.55,2.14-13.82,1.3-4.67,2.81-9.28,4.46-13.84,3.54-9.77,7.79-19.26,12.12-28.7,8.12-17.68,16.56-35.28,22-54,.9-3.09-3.92-4.41-4.83-1.33Z" transform="translate(-154.2 -165.12)"/><path class="cls-1" d="M583.17,265.25c-37.45,13.18-72.6,32.28-108,50l3,3.92c6.14-5.68,13.85-10.37,22.22-11.76,8.8-1.45,15.1,2.46,19.34,9.83,5.72,9.93,8.69,22.13,20.56,26.53,14,5.18,28.11-2.62,39.25-10.59a158.38,158.38,0,0,0,18.14-15.06c4.85-4.7,9.44-9.76,10.67-16.62.25-1.4-.65-3.38-2.41-3.16-9.47,1.17-19.86,11-16.32,21.41,1.87,5.5,8.14,5.89,13,6.25a89.85,89.85,0,0,0,22.21-1.22c12.87-2.28,27.73-7.36,37.39-16.56,8.5-8.1,7.77-20.16-2.1-26.85-10.88-7.37-27.78-5.83-40-3.52-12.94,2.45-27.1,7.73-35.74,18.16-3.52,4.25-7,10.16-6,15.89.91,5.19,5.42,8.77,10.32,10.08,7,1.86,14.95.59,22-.36,7.49-1,14.89-2.62,22.25-4.36,8.66-2,17.28-4.27,26-5.94,2.67-.52,6.72-2.18,7.6,1.52.45,1.87-.44,4.05-.64,5.94a13.76,13.76,0,0,0,1.35,8c7.53,14.55,25.65,8.7,37,3.41,2.91-1.35.38-5.67-2.52-4.32-5.42,2.52-11.31,5.37-17.42,5.35-5.46,0-12.05-2.93-13.4-8.77-1-4.33,1.81-8.51-.09-12.83-1.39-3.14-3.94-4.26-7.24-4.11-10.62.49-21.71,4.52-32,7-11.32,2.67-22.86,5.15-34.54,5.32-6.55.1-15.83-1.95-13.34-10.72,1.52-5.37,5.85-10,10.2-13.27,8.61-6.49,19.62-9.93,30.15-11.57,10-1.55,23.9-2.62,32.87,3.08,5,3.19,8.11,9.19,5.24,14.89-2.5,5-7.83,8.08-12.52,10.65a85.37,85.37,0,0,1-36.73,10.31c-4.64.22-18.29,1.93-18.92-5.08-.57-6.37,6.09-12,11.83-12.71l-2.41-3.17c-1.47,8.17-8.65,14-14.57,19.2a137.78,137.78,0,0,1-19,14.22c-13.51,8.28-30.33,10.52-39.06-5.16-5.08-9.11-8.12-21-18.94-25-13-4.82-28,3.61-37.31,12.24-2.17,2,.58,5.15,3,3.93,35-17.56,69.77-36.5,106.81-49.53,3-1.06,1.71-5.9-1.33-4.83Z" transform="translate(-154.2 -165.12)"/></svg>